<svg xmlns="http://www.w3.org/2000/svg" width="624.434" height="471.295" viewBox="0 0 624.434 471.295"><defs><style>.a{fill:#eccb8c;}</style></defs><g transform="translate(-137.124 -8.922)"><path class="a" d="M605.243,194.7l12.795-10.233c-9.94-1.1-14.024,4.324-15.7,8.615-7.765-3.224-16.219,1-16.219,1l25.6,9.294a19.372,19.372,0,0,0-6.481-8.677Z" transform="translate(-449 -1.396)"/><path class="a" d="M605.243,194.7l12.795-10.233c-9.94-1.1-14.024,4.324-15.7,8.615-7.765-3.224-16.219,1-16.219,1l25.6,9.294a19.372,19.372,0,0,0-6.481-8.677Z" transform="translate(-238.459 -65.396)"/><path class="a" d="M799.827,298.936,812.622,288.7c-9.94-1.1-14.024,4.324-15.7,8.615-7.765-3.224-16.219,1-16.219,1l25.6,9.294A19.372,19.372,0,0,0,799.827,298.936Z" transform="translate(-449 -1.396)"/><path class="a" d="M799.827,298.936,812.622,288.7c-9.94-1.1-14.024,4.324-15.7,8.615-7.765-3.224-16.219,1-16.219,1l25.6,9.294A19.372,19.372,0,0,0,799.827,298.936Z" transform="translate(-239.064 172.604)"/><path class="a" d="M589.955,387.889l12.795-10.233c-9.94-1.1-14.024,4.324-15.7,8.615-7.765-3.224-16.219,1-16.219,1l25.6,9.294a19.372,19.372,0,0,0-6.481-8.677Z" transform="translate(-263.064 36.604)"/><path class="a" d="M589.955,387.889l12.795-10.233c-9.94-1.1-14.024,4.324-15.7,8.615-7.765-3.224-16.219,1-16.219,1l25.6,9.294a19.372,19.372,0,0,0-6.481-8.677Z" transform="translate(-389.064 -29.296)"/><path class="a" d="M605.243,194.7l12.795-10.233c-9.94-1.1-14.024,4.324-15.7,8.615-7.765-3.224-16.219,1-16.219,1l25.6,9.294a19.372,19.372,0,0,0-6.481-8.677Z" transform="translate(-156 -111.396)"/><path class="a" d="M605.243,194.7l12.795-10.233c-9.94-1.1-14.024,4.324-15.7,8.615-7.765-3.224-16.219,1-16.219,1l25.6,9.294a19.372,19.372,0,0,0-6.481-8.677Z" transform="translate(54.541 -175.396)"/><path class="a" d="M799.827,298.936,812.622,288.7c-9.94-1.1-14.024,4.324-15.7,8.615-7.765-3.224-16.219,1-16.219,1l25.6,9.294A19.372,19.372,0,0,0,799.827,298.936Z" transform="translate(-156 -111.396)"/><path class="a" d="M799.827,298.936,812.622,288.7c-9.94-1.1-14.024,4.324-15.7,8.615-7.765-3.224-16.219,1-16.219,1l25.6,9.294A19.372,19.372,0,0,0,799.827,298.936Z" transform="translate(-51.064 -69.396)"/><path class="a" d="M589.955,387.889l12.795-10.233c-9.94-1.1-14.024,4.324-15.7,8.615-7.765-3.224-16.219,1-16.219,1l25.6,9.294a19.372,19.372,0,0,0-6.481-8.677Z" transform="translate(29.936 -73.396)"/><path class="a" d="M589.955,387.889l12.795-10.233c-9.94-1.1-14.024,4.324-15.7,8.615-7.765-3.224-16.219,1-16.219,1l25.6,9.294a19.372,19.372,0,0,0-6.481-8.677Z" transform="translate(-96.064 -139.296)"/></g></svg>